# xmcd CD database file
#
# Track frame offsets:
#	150
#	13590
#	27345
#	40225
#	55272
#	70470
#	82277
#	96485
#	108625
#	122810
#	140590
#	153580
#	166505
#	181845
#	197547
#	209457
#	223930
#	237592
#	248887
#	263297
#
# Disc length: 3696 seconds
#
# Revision: 0
# Processed by: cddbd v1.5.2PL0 Copyright (c) Steve Scherf et al.
# Submitted via: CDex 1.51
#
DISCID=270e6e14
DTITLE=Various Artist - Jazz and Love: 20 Great Hits
DYEAR=1998
DGENRE=Jazz
TTITLE0=Duke Ellington - Prelude to a kiss
TTITLE1=Sarah Vaughan - You go to my head
TTITLE2=Nat King Cole - You're nobody til somebody loves you
TTITLE3=Ella Fitzgerald - Love and kisses
TTITLE4=Miles Davis and Charlie Parker - Embraceable you
TTITLE5=Mildred Bailey - Lover come back to me
TTITLE6=Nat King Cole - Sweet Lorraine
TTITLE7=Pha Terrel with Andy Kirk Orchestra - With love in my heart
TTITLE8=Tony Pastor with Artie Shay Orchestra - Indian love call
TTITLE9=Benny Goodman - I got rythm
TTITLE10=Erroll Garner - For you
TTITLE11=Billie Holiday - Without your love
TTITLE12=Glenn Miller - Moonlight serenade
TTITLE13=Tommy Dorsey Orchestra - Liebestraum
TTITLE14=Sarah Vaughan - My kinda love
TTITLE15=Frank Sinatra with Tommy Dorsey Orchestra - Imagination
TTITLE16=Coleman Hawkins - Body and soul
TTITLE17=Louis Armstrong - Love walked in
TTITLE18=Benny Goddman - Undercurrent blues
TTITLE19=Billie Holiday - The man I love
EXTD=YEAR: 1998
EXTT0=
EXTT1=
EXTT2=
EXTT3=
EXTT4=
EXTT5=
EXTT6=
EXTT7=
EXTT8=
EXTT9=
EXTT10=
EXTT11=
EXTT12=
EXTT13=
EXTT14=
EXTT15=
EXTT16=
EXTT17=
EXTT18=
EXTT19=
PLAYORDER=
